<svg width="430" height="799" viewBox="0 0 430 799" fill="none" xmlns="http://www.w3.org/2000/svg">
<path fill-rule="evenodd" clip-rule="evenodd" d="M430 71.2642V799H0V28.7536C72.2533 -5.33095 158.253 -10.604 233.653 21.0343C309.053 52.6726 364.786 66.6979 430 71.2642Z" fill="url(#paint0_linear_2001_629)"/>
<path d="M326.5 35.5L341 24L372 30.5L376 40L390.5 43L393.5 50L379 47.5L376 40L359 36.5L352.5 43.5L341.5 41.5L339.5 51.5L335.449 50.9115L326.5 35.5Z" fill="url(#paint1_linear_2001_629)"/>
<path d="M383.195 61.6389L400 65L397 57.5L362.5 51L365 58L374.075 59.815C374.468 57.6454 376.367 56 378.65 56C381.218 56 383.3 58.0819 383.3 60.65C383.3 60.9894 383.264 61.3202 383.195 61.6389Z" fill="url(#paint2_linear_2001_629)"/>
<path d="M374 60.65C374 63.2181 376.082 65.3 378.65 65.3C380.87 65.3 382.726 63.7451 383.189 61.6652L374.074 59.8193C374.026 60.0888 374 60.3665 374 60.65Z" fill="url(#paint3_linear_2001_629)"/>
<path d="M346.2 55.1307C346.2 57.6988 348.282 59.7807 350.85 59.7807C353.07 59.7807 354.926 58.2258 355.389 56.1459L346.274 54.3C346.226 54.5695 346.2 54.8472 346.2 55.1307Z" fill="url(#paint4_linear_2001_629)"/>
<defs>
<linearGradient id="paint0_linear_2001_629" x1="430" y1="425.374" x2="-1.50974" y2="395.245" gradientUnits="userSpaceOnUse">
<stop stop-color="#038CD7"/>
<stop offset="1" stop-color="#025AD5"/>
</linearGradient>
<linearGradient id="paint1_linear_2001_629" x1="336" y1="26" x2="401" y2="65" gradientUnits="userSpaceOnUse">
<stop stop-color="#018ED5"/>
<stop offset="1" stop-color="#0148BA"/>
</linearGradient>
<linearGradient id="paint2_linear_2001_629" x1="336" y1="26" x2="401" y2="65" gradientUnits="userSpaceOnUse">
<stop stop-color="#018ED5"/>
<stop offset="1" stop-color="#0148BA"/>
</linearGradient>
<linearGradient id="paint3_linear_2001_629" x1="336" y1="26" x2="401" y2="65" gradientUnits="userSpaceOnUse">
<stop stop-color="#018ED5"/>
<stop offset="1" stop-color="#0148BA"/>
</linearGradient>
<linearGradient id="paint4_linear_2001_629" x1="336" y1="26" x2="401" y2="65" gradientUnits="userSpaceOnUse">
<stop stop-color="#018ED5"/>
<stop offset="1" stop-color="#0148BA"/>
</linearGradient>
</defs>
</svg>
