<svg width="49" height="41" viewBox="0 0 49 41" fill="none" xmlns="http://www.w3.org/2000/svg">
<path d="M0 0H19L49 25V41L24 20L0 0Z" fill="#52D017"/>
<path d="M19.3422 12.9488L23.7623 7.52081L24.3826 8.02597L23.8205 9.27053L20.2339 13.6749L19.3422 12.9488ZM23.103 16.0113L23.308 9.12396L24.3826 8.02597L24.1776 14.9133L23.103 16.0113ZM23.103 16.0113L23.6083 14.8365L27.2517 10.3623L28.1434 11.0885L23.7233 16.5164L23.103 16.0113ZM26.4501 18.8659C26.0779 18.5628 25.8092 18.2065 25.6441 17.7969C25.4884 17.3863 25.4426 16.9622 25.5068 16.5244C25.5761 16.0908 25.7603 15.6905 26.0592 15.3235C26.358 14.9564 26.7106 14.6976 27.117 14.5471C27.5275 14.3913 27.947 14.346 28.3754 14.4112C28.809 14.4805 29.2041 14.6604 29.5608 14.9509C29.9072 15.2329 30.1469 15.5614 30.2801 15.9364C30.4184 16.3155 30.4488 16.7057 30.3714 17.1069C30.2992 17.5124 30.1178 17.8935 29.8274 18.2501C29.7769 18.3122 29.7191 18.3726 29.654 18.4314C29.5983 18.4892 29.5311 18.5506 29.4525 18.6155L26.3973 16.1276L26.9656 15.4297L29.5788 17.5577L29.0336 17.5779C29.2084 17.3421 29.3203 17.115 29.369 16.8968C29.4178 16.6786 29.4034 16.4691 29.326 16.2686C29.2538 16.0722 29.1143 15.8898 28.9075 15.7214C28.6904 15.5446 28.4638 15.4375 28.2278 15.4001C27.9918 15.3626 27.7604 15.3934 27.5336 15.4924C27.311 15.5863 27.105 15.7495 26.9156 15.9822C26.7261 16.2148 26.6064 16.4569 26.5563 16.7084C26.5062 16.9599 26.5265 17.2043 26.6171 17.4414C26.7119 17.6734 26.8705 17.8799 27.0927 18.0609C27.284 18.2166 27.4871 18.3262 27.7021 18.3895C27.9223 18.457 28.1418 18.4724 28.3608 18.4358L28.4553 19.4283C28.1017 19.4929 27.7515 19.4743 27.4047 19.3724C27.0578 19.2705 26.7396 19.1016 26.4501 18.8659ZM29.9664 21.6003L31.5007 16.6596L32.3847 17.3794L31.189 20.9065L30.9191 20.6996L34.1139 18.7875L34.6102 19.1917L33.3849 22.7076L33.1276 22.4851L36.3394 20.5998L37.2233 21.3196L32.6959 23.823L32.1996 23.4188L33.2879 20.0236L33.5671 20.2509L30.4626 22.0044L29.9664 21.6003Z" fill="#F3F8FF"/>
</svg>
