<svg width="305" height="151" viewBox="0 0 305 151" fill="none" xmlns="http://www.w3.org/2000/svg">
<g clip-path="url(#clip0_91_342)">
<path d="M-25.6927 64.3416L59.149 33.0902C65.3833 30.8154 71.8345 29.0823 78.34 27.999L82.8938 34.8234C92.9772 49.8804 109.891 58.9254 127.998 58.9254H207.527C225.2 58.9254 242.548 63.6916 257.673 72.7908L288.736 91.3683L277.894 96.8386V113.087L288.736 123.919H41.8553L2.93115 120.886L-25.6927 98.8426L-14.8503 69.7577L-25.6927 64.3416Z" fill="#9CA6FF"/>
<path d="M-25.6927 64.3416L59.149 33.0902C65.3833 30.8154 71.8345 29.0823 78.34 27.999L82.8938 34.8234C87.1873 41.2361 92.7766 46.479 99.114 50.4761C100.372 79.2739 124.073 102.255 153.207 102.255H277.894V113.087L288.736 123.919H41.8553L2.93115 120.886L-25.6927 98.8426L-14.8503 69.7577L-25.6927 64.3416Z" fill="#7482FF"/>
<path d="M82.8935 34.8233L78.3397 27.9989C84.3572 26.9698 90.4832 26.4282 96.6633 26.4282H105.337C122.577 26.4282 139.653 30.1654 155.321 37.3689L201.997 58.9253H127.998C109.891 58.9253 92.9769 49.8803 82.8935 34.8233Z" fill="#D1E7F8"/>
<path d="M229.103 134.752C217.127 134.752 207.419 125.052 207.419 113.087C207.419 101.122 217.127 91.4221 229.103 91.4221C241.08 91.4221 250.788 101.122 250.788 113.087C250.788 125.052 241.08 134.752 229.103 134.752Z" fill="#414042"/>
<path d="M23.098 91.4221C35.0734 91.4221 44.7828 101.122 44.7828 113.087C44.7828 125.051 35.0734 134.752 23.098 134.752C13.8766 134.752 6.05378 128.978 2.91491 120.875C1.97705 118.454 1.41324 115.844 1.41324 113.087C1.41324 101.122 11.1226 91.4221 23.098 91.4221Z" fill="#414042"/>
<path d="M-30.7889 96.9465L-21.6271 72.4112L-28.1326 69.1615C-30.03 68.2408 -31.2227 66.1826 -31.1142 64.0161C-31.0058 61.9038 -29.5963 60.0082 -27.5905 59.2499L57.3054 27.9986C63.8651 25.6155 70.6415 23.8281 77.3096 22.6907H77.3638L77.418 22.6366C83.815 21.5533 105.337 21.0117 105.337 21.0117C123.227 21.0117 141.334 24.9655 157.597 32.4399L203.19 53.5088H207.527C226.23 53.5088 244.553 58.6 260.437 68.1325L291.501 86.7099C293.236 87.739 294.211 89.5805 294.157 91.5845C294.103 93.5343 292.965 95.3217 291.176 96.1882L283.315 100.196V110.866L292.585 120.074C294.103 121.644 294.591 123.973 293.724 125.977C292.91 128.035 290.905 129.335 288.736 129.335H250.625C245.692 135.889 237.94 140.168 229.103 140.168C220.266 140.168 212.514 135.889 207.581 129.335H44.6198C39.6865 135.889 31.9342 140.168 23.0977 140.168C12.1469 140.168 2.76822 133.668 -1.51453 124.298L-29 103.121C-30.8974 101.659 -31.6021 99.1671 -30.7889 96.9465ZM153.044 42.2973C138.19 35.4729 121.709 31.8441 105.337 31.8441C105.337 31.8441 90.6999 32.0066 87.7183 32.2232C96.8801 45.547 111.843 53.5088 127.998 53.5088H177.331L153.044 42.2973ZM229.103 129.335C238.048 129.335 245.367 122.023 245.367 113.087C245.367 104.15 238.048 96.8382 229.103 96.8382C220.158 96.8382 212.839 104.15 212.839 113.087C212.839 122.023 220.158 129.335 229.103 129.335ZM23.0977 129.335C32.0427 129.335 39.3613 122.023 39.3613 113.087C39.3613 104.15 32.0427 96.8382 23.0977 96.8382C14.1527 96.8382 6.83411 104.15 6.83411 113.087C6.83411 122.023 14.1527 129.335 23.0977 129.335ZM-3.57455 109.025C-1.62292 96.0258 9.54471 86.0058 23.0977 86.0058C38.0602 86.0058 50.2036 98.1381 50.2036 113.087C50.2036 114.928 49.9868 116.77 49.6615 118.503H202.539C202.214 116.77 201.997 114.928 201.997 113.087C201.997 98.1381 214.14 86.0058 229.103 86.0058C244.065 86.0058 256.209 98.1381 256.209 113.087C256.209 114.928 255.992 116.77 255.667 118.503H275.671L274.045 116.932C273.069 115.903 272.473 114.549 272.473 113.087V96.8382C272.473 94.78 273.611 92.9385 275.454 92.0178L277.514 90.9887L254.854 77.4483C240.65 68.8907 224.278 64.3411 207.527 64.3411H127.998C108.048 64.3411 89.5073 54.4295 78.3938 37.8019L75.9001 34.0647C70.9126 35.0938 65.9251 36.3936 61.046 38.181L-12.0858 65.0994C-9.86316 66.3993 -8.83313 69.1615 -9.75473 71.653L-19.2418 97.0007L-3.57455 109.025Z" fill="#231F20"/>
<path d="M17.6769 64.3413H57.5985C67.7253 64.3413 77.9334 66.5836 87.1332 70.819L131.663 91.3518C139.448 94.9427 148.084 96.8384 156.655 96.8384H185.734C188.726 96.8384 191.155 99.2648 191.155 102.255C191.155 105.244 188.726 107.671 185.734 107.671H156.655C146.528 107.671 136.32 105.428 127.12 101.193L82.5902 80.6602C74.8054 77.0693 66.1694 75.1737 57.5985 75.1737H17.6769C14.6844 75.1737 12.2557 72.7472 12.2557 69.7575C12.2557 66.7678 14.6844 64.3413 17.6769 64.3413Z" fill="#231F20"/>
</g>
<defs>
<clipPath id="clip0_91_342">
<rect width="305" height="151" fill="white" transform="matrix(-1 0 0 1 305 0)"/>
</clipPath>
</defs>
</svg>
