<svg width="305" height="176" viewBox="0 0 305 176" fill="none" xmlns="http://www.w3.org/2000/svg">
<g clip-path="url(#clip0_91_323)">
<path d="M256.68 143.725H288.893V122.209C288.893 98.433 269.673 79.1758 245.942 79.1758H-1.02557C-12.8908 79.1758 -22.501 88.8044 -22.501 100.692V143.725H256.68Z" fill="#A7E58A"/>
<path d="M-1.02557 79.1758H106.352C106.352 91.0583 115.967 100.692 127.827 100.692H283.106C286.767 107.023 288.893 114.361 288.893 122.209V143.725H-22.501V100.692C-22.501 88.8098 -12.8854 79.1758 -1.02557 79.1758Z" fill="#52D017"/>
<path d="M73.5537 30.7639H75.7818L51.9387 53.4961C45.5497 59.5906 41.9311 68.0412 41.9311 76.8791V79.176H9.71787L31.1772 51.5327C41.3513 38.4292 56.9908 30.7639 73.5537 30.7639Z" fill="#52D017"/>
<path d="M106.352 30.7639H122.458V79.176H106.352V30.7639Z" fill="#52D017"/>
<path d="M137.803 30.7639C152.041 30.7639 165.699 36.4335 175.766 46.5194L208.36 79.176H122.458V30.7639H137.803Z" fill="#D1E7F8"/>
<path d="M51.9332 53.4961L75.7764 30.7639H106.352V79.176H41.9257V76.8791C41.9257 68.0412 45.5443 59.5906 51.9332 53.4961Z" fill="#D1E7F8"/>
<path d="M41.9254 159.863C27.0997 159.863 15.0811 147.821 15.0811 132.967C15.0811 118.113 27.0997 106.072 41.9254 106.072C56.7512 106.072 68.7698 118.113 68.7698 132.967C68.7698 147.821 56.7512 159.863 41.9254 159.863Z" fill="#414042"/>
<path d="M229.836 159.863C215.01 159.863 202.992 147.821 202.992 132.967C202.992 118.113 215.01 106.072 229.836 106.072C244.662 106.072 256.68 118.113 256.68 132.967C256.68 147.821 244.662 159.863 229.836 159.863Z" fill="#414042"/>
<path d="M267.418 111.451C267.418 105.507 272.223 100.692 278.156 100.692H283.106C285.914 105.555 287.798 111.004 288.523 116.83H267.418V111.451Z" fill="#E6E7E8"/>
<path d="M-1.02539 73.7966H7.08157L26.9464 48.2458C38.221 33.7222 55.1867 25.3845 73.5482 25.3845H137.814C153.598 25.3845 168.416 31.5167 179.583 42.7053L210.562 73.7966H245.943C272.572 73.7966 294.262 95.5283 294.262 122.209V143.725C294.262 146.684 291.846 149.104 288.894 149.104H257.7C252.117 158.733 241.755 165.242 229.836 165.242C217.917 165.242 207.555 158.733 201.972 149.104H69.79C64.2064 158.733 53.8444 165.242 41.9256 165.242C30.0067 165.242 19.6447 158.733 14.0611 149.104H-22.5009C-25.4537 149.104 -27.8698 146.684 -27.8698 143.725V100.692C-27.8698 85.8459 -15.8435 73.7966 -1.02539 73.7966ZM35.4292 54.8083L20.6648 73.7966H36.7177C37.4694 64.6521 41.5497 55.9379 48.2071 49.5906L60.3408 38.0254C50.5694 40.7688 41.8719 46.5245 35.4292 54.8083ZM100.983 36.1428H77.9507L55.6162 57.3903C51.1063 61.7474 48.3145 67.6106 47.6166 73.7966H100.983V36.1428ZM117.09 36.1428H111.721V73.7966H117.09V36.1428ZM171.96 50.3436C162.832 41.1991 150.699 36.1428 137.814 36.1428H127.827V73.7966H195.422L171.96 50.3436ZM279.874 106.071H278.156C275.203 106.071 272.787 108.492 272.787 111.45H281.968C281.377 109.568 280.679 107.793 279.874 106.071ZM229.836 154.483C241.701 154.483 251.311 144.855 251.311 132.967C251.311 121.079 241.701 111.45 229.836 111.45C217.971 111.45 208.36 121.079 208.36 132.967C208.36 144.855 217.971 154.483 229.836 154.483ZM41.9256 154.483C53.7908 154.483 63.401 144.855 63.401 132.967C63.401 121.079 53.7908 111.45 41.9256 111.45C30.0604 111.45 20.4501 121.079 20.4501 132.967C20.4501 144.855 30.0604 154.483 41.9256 154.483ZM-17.132 138.346H10.1955C9.92709 136.571 9.71234 134.796 9.71234 132.967C9.71234 115.162 24.1546 100.692 41.9256 100.692C59.6965 100.692 74.1388 115.162 74.1388 132.967C74.1388 134.796 73.924 136.571 73.6556 138.346H198.106C197.838 136.571 197.623 134.796 197.623 132.967C197.623 115.162 212.065 100.692 229.836 100.692C247.607 100.692 262.049 115.162 262.049 132.967C262.049 134.796 261.834 136.571 261.566 138.346H283.525V122.209H267.418C264.465 122.209 262.049 119.788 262.049 116.83V111.45C262.049 104.35 266.666 98.3792 273.055 96.2275C266.237 89.0733 256.627 84.5549 245.943 84.5549H-1.02539C-8.00491 84.5549 -13.9107 89.0733 -16.1656 95.3131H-11.7631C-2.90451 95.3131 4.34348 102.575 4.34348 111.45V116.83C4.34348 119.788 1.92749 122.209 -1.02539 122.209H-17.132V138.346ZM-17.132 111.45H-6.39426C-6.39426 108.492 -8.81024 106.071 -11.7631 106.071H-17.132V111.45Z" fill="#231F20"/>
<path d="M138.565 89.9341H149.303C152.266 89.9341 154.672 92.3439 154.672 95.3132C154.672 98.2825 152.266 100.692 149.303 100.692H138.565C135.602 100.692 133.196 98.2825 133.196 95.3132C133.196 92.3439 135.602 89.9341 138.565 89.9341Z" fill="#231F20"/>
<path d="M58.0321 89.9341H68.7698C71.7334 89.9341 74.1387 92.3439 74.1387 95.3132C74.1387 98.2825 71.7334 100.692 68.7698 100.692H58.0321C55.0684 100.692 52.6632 98.2825 52.6632 95.3132C52.6632 92.3439 55.0684 89.9341 58.0321 89.9341Z" fill="#231F20"/>
</g>
<defs>
<clipPath id="clip0_91_323">
<rect width="305" height="176" fill="white" transform="matrix(-1 0 0 1 305 0)"/>
</clipPath>
</defs>
</svg>
