<svg width="298" height="200" viewBox="0 0 298 200" fill="none" xmlns="http://www.w3.org/2000/svg">
<g clip-path="url(#clip0_91_303)">
<path d="M-15.407 95.7732V145.283L6.58646 161.787H265.01L281.505 150.784V139.782C281.505 115.467 261.821 95.7732 237.518 95.7732H-15.407Z" fill="#9ECAFF"/>
<path d="M122.052 95.7732C122.052 114.004 136.821 128.78 155.042 128.78H280.064C280.972 132.301 281.505 135.975 281.505 139.782V150.784L265.01 161.787H6.58646L-15.407 145.283V95.7732H122.052Z" fill="#74B3FF"/>
<path d="M280.064 128.78H265.01C261.986 128.78 259.236 127.57 257.257 125.534C255.223 123.554 254.013 120.804 254.013 117.778C254.013 111.727 258.961 106.776 265.01 106.776H266.555C273.059 112.508 277.837 120.121 280.064 128.78Z" fill="#F1F2F2"/>
<path d="M138.547 40.7622H159.056L210.026 95.7735H122.052V40.7622H138.547Z" fill="#D1E7F8"/>
<path d="M39.5762 40.7622H56.0713V95.7735H-4.41075L17.5827 40.7622H39.5762Z" fill="#D1E7F8"/>
<path d="M56.0717 183.791C40.8884 183.791 28.5799 171.477 28.5799 156.286C28.5799 141.095 40.8884 128.78 56.0717 128.78C71.2551 128.78 83.5636 141.095 83.5636 156.286C83.5636 171.477 71.2551 183.791 56.0717 183.791Z" fill="#414042"/>
<path d="M221.023 183.791C205.839 183.791 193.531 171.477 193.531 156.286C193.531 141.095 205.839 128.78 221.023 128.78C236.206 128.78 248.515 141.095 248.515 156.286C248.515 171.477 236.206 183.791 221.023 183.791Z" fill="#414042"/>
<path d="M56.0717 40.7622H122.052V95.7735H56.0717V40.7622Z" fill="#D1E7F8"/>
<path d="M-37.4008 73.7688H-15.4073C-12.3832 73.7688 -9.909 76.2443 -9.909 79.27V90.2722H-8.14951L12.4694 38.7267C13.2941 36.6362 15.3286 35.261 17.5829 35.261H35.6175L37.432 29.7598H28.5796C25.5555 29.7598 23.0812 27.2843 23.0812 24.2587C23.0812 21.2331 25.5555 18.7576 28.5796 18.7576H144.045C147.07 18.7576 149.544 21.2331 149.544 24.2587C149.544 27.2843 147.07 29.7598 144.045 29.7598H137.832L141.516 35.261H159.056C160.596 35.261 162.025 35.9211 163.07 37.0213L212.445 90.2722H237.518C264.79 90.2722 287.003 112.497 287.003 139.782V150.785C287.003 152.6 286.068 154.36 284.529 155.351L268.034 166.353C267.154 166.958 266.109 167.288 265.01 167.288H252.088C247.525 180.106 235.373 189.293 221.023 189.293C206.672 189.293 194.52 180.106 189.957 167.288H87.1373C82.5736 180.106 70.4222 189.293 56.0715 189.293C41.7207 189.293 29.5693 180.106 25.0057 167.288H6.58612C5.3765 167.288 4.22183 166.903 3.28711 166.188L-18.7064 149.684C-20.081 148.639 -20.9057 146.989 -20.9057 145.283V139.782H-37.4008C-40.425 139.782 -42.8992 137.307 -42.8992 134.281V79.27C-42.8992 76.2443 -40.425 73.7688 -37.4008 73.7688ZM21.3218 46.2632L3.72699 90.2722H50.5731V46.2632H21.3218ZM124.581 29.7598H49.0336L47.2191 35.261H128.265L124.581 29.7598ZM61.5698 46.2632V90.2722H116.554V46.2632H61.5698ZM156.637 46.2632H127.55V90.2722H197.435L156.637 46.2632ZM264.515 112.387C261.711 112.662 259.511 114.917 259.511 117.778C259.511 119.263 260.061 120.583 261.216 121.684C262.205 122.729 263.525 123.279 265.01 123.279H272.267C270.288 119.208 267.704 115.522 264.515 112.387ZM221.023 178.29C233.174 178.29 243.016 168.443 243.016 156.286C243.016 144.128 233.174 134.281 221.023 134.281C208.871 134.281 199.029 144.128 199.029 156.286C199.029 168.443 208.871 178.29 221.023 178.29ZM56.0715 178.29C68.2229 178.29 78.065 168.443 78.065 156.286C78.065 144.128 68.2229 134.281 56.0715 134.281C43.9201 134.281 34.078 144.128 34.078 156.286C34.078 168.443 43.9201 178.29 56.0715 178.29ZM-9.909 142.533L8.4006 156.286H23.0812C23.0812 138.077 37.8719 123.279 56.0715 123.279C74.2711 123.279 89.0617 138.077 89.0617 156.286H188.032C188.032 138.077 202.823 123.279 221.023 123.279C239.222 123.279 254.013 138.077 254.013 156.286H263.36L276.006 147.814V139.782C276.006 137.912 275.841 136.097 275.566 134.281H265.01C260.556 134.281 256.377 132.521 253.408 129.495C250.274 126.415 248.514 122.234 248.514 117.778C248.514 112.717 250.824 108.261 254.398 105.235C249.284 102.705 243.566 101.274 237.518 101.274H-9.909V142.533ZM-31.9025 128.78H-20.9057V84.7711H-31.9025V128.78Z" fill="#231F20"/>
<path d="M61.5704 106.776H72.5672C75.6023 106.776 78.0655 109.24 78.0655 112.277C78.0655 115.313 75.6023 117.778 72.5672 117.778H61.5704C58.5353 117.778 56.0721 115.313 56.0721 112.277C56.0721 109.24 58.5353 106.776 61.5704 106.776Z" fill="#231F20"/>
<path d="M138.547 106.776H149.544C152.579 106.776 155.042 109.24 155.042 112.277C155.042 115.313 152.579 117.778 149.544 117.778H138.547C135.512 117.778 133.049 115.313 133.049 112.277C133.049 109.24 135.512 106.776 138.547 106.776Z" fill="#231F20"/>
<path d="M122.052 106.776C125.087 106.776 127.55 109.24 127.55 112.277V145.284C127.55 148.32 125.087 150.785 122.052 150.785C119.017 150.785 116.553 148.32 116.553 145.284V112.277C116.553 109.24 119.017 106.776 122.052 106.776Z" fill="#231F20"/>
</g>
<defs>
<clipPath id="clip0_91_303">
<rect width="298" height="200" fill="white" transform="matrix(-1 0 0 1 298 0)"/>
</clipPath>
</defs>
</svg>
