<svg width="137" height="24" viewBox="0 0 137 24" fill="none" xmlns="http://www.w3.org/2000/svg">
<g id="Group 1000004625">
<g id="star">
<mask id="mask0_1_499" style="mask-type:alpha" maskUnits="userSpaceOnUse" x="0" y="0" width="23" height="24">
<rect id="Bounding box" x="0.130646" y="0.56543" width="22.6683" height="22.6683" fill="#D9D9D9"/>
</mask>
<g mask="url(#mask0_1_499)">
<g id="star_2">
<mask id="path-2-inside-1_1_499" fill="white">
<path d="M5.63247 21.3442L7.1673 14.709L2.0197 10.2462L8.8202 9.65584L11.4648 3.39844L14.1095 9.65584L20.91 10.2462L15.7624 14.709L17.2972 21.3442L11.4648 17.8259L5.63247 21.3442Z"/>
</mask>
<path d="M5.63247 21.3442L7.1673 14.709L2.0197 10.2462L8.8202 9.65584L11.4648 3.39844L14.1095 9.65584L20.91 10.2462L15.7624 14.709L17.2972 21.3442L11.4648 17.8259L5.63247 21.3442Z" fill="#FFCD00"/>
<path d="M8.48962 17.4009L-37.5267 6.78171L-62.5998 115.432L32.8814 57.8398L8.48962 17.4009ZM11.4648 15.6063L36.0907 -24.6906L11.625 -39.6418L-12.9269 -24.8327L11.4648 15.6063ZM14.4401 17.4245L-10.1858 57.7213L85.5292 116.214L60.4725 6.87537L14.4401 17.4245ZM13.6608 14.0242L-17.232 -21.6956L-38.7167 -3.11421L-32.3716 24.5733L13.6608 14.0242ZM16.2819 11.7574L47.1747 47.4772L131.44 -25.4013L20.4703 -35.2822L16.2819 11.7574ZM6.64782 11.7338L2.45936 -35.3058L-107.723 -25.4951L-24.4278 47.2946L6.64782 11.7338ZM9.26885 14.0242L55.2852 24.6434L61.6463 -2.92151L40.3445 -21.5366L9.26885 14.0242ZM32.8814 57.8398L35.8566 56.0453L-12.9269 -24.8327L-15.9021 -23.0381L32.8814 57.8398ZM-13.161 55.9031L-10.1858 57.7213L39.0659 -22.8724L36.0907 -24.6906L-13.161 55.9031ZM60.4725 6.87537L59.6933 3.47512L-32.3716 24.5733L-31.5924 27.9736L60.4725 6.87537ZM44.5536 49.744L47.1747 47.4772L-14.6109 -23.9624L-17.232 -21.6956L44.5536 49.744ZM20.4703 -35.2822L17.0228 -35.5892L8.64593 58.49L12.0934 58.797L20.4703 -35.2822ZM5.90684 -35.6128L2.45936 -35.3058L10.8363 58.7734L14.2838 58.4664L5.90684 -35.6128ZM-24.4278 47.2946L-21.8068 49.585L40.3445 -21.5366L37.7235 -23.827L-24.4278 47.2946ZM-36.7475 3.40507L-37.5267 6.78171L54.5059 28.02L55.2852 24.6434L-36.7475 3.40507ZM5.63247 21.3442L-86.3891 0.0580714L-136.688 217.503L54.4198 102.22L5.63247 21.3442ZM7.1673 14.709L99.1889 35.9951L112.004 -19.4064L69.0389 -56.6561L7.1673 14.709ZM2.0197 10.2462L-6.14849 -83.8514L-228.446 -64.5548L-59.8519 81.6113L2.0197 10.2462ZM8.8202 9.65584L16.9884 103.753L73.671 98.8331L95.8205 46.4258L8.8202 9.65584ZM11.4648 3.39844L98.4651 -33.3715L11.4648 -239.22L-75.5354 -33.3715L11.4648 3.39844ZM14.1095 9.65584L-72.8908 46.4258L-50.7413 98.8331L5.94129 103.753L14.1095 9.65584ZM20.91 10.2462L82.7816 81.6113L251.375 -64.5548L29.0782 -83.8514L20.91 10.2462ZM15.7624 14.709L-46.1092 -56.6561L-89.0745 -19.4064L-76.2592 35.9951L15.7624 14.709ZM17.2972 21.3442L-31.4901 102.22L159.618 217.503L109.319 0.0580626L17.2972 21.3442ZM11.4648 17.8259L60.2522 -63.0498L11.4648 -92.4802L-37.3225 -63.0498L11.4648 17.8259ZM97.6541 42.6303L99.1889 35.9951L-84.8543 -6.57714L-86.3891 0.0580714L97.6541 42.6303ZM69.0389 -56.6561L63.8913 -61.1189L-59.8519 81.6113L-54.7043 86.0741L69.0389 -56.6561ZM10.1879 104.344L16.9884 103.753L0.652009 -84.4417L-6.14849 -83.8514L10.1879 104.344ZM95.8205 46.4258L98.4651 40.1684L-75.5354 -33.3715L-78.1801 -27.1141L95.8205 46.4258ZM-75.5354 40.1684L-72.8908 46.4258L101.11 -27.1141L98.4651 -33.3715L-75.5354 40.1684ZM5.94129 103.753L12.7418 104.344L29.0782 -83.8514L22.2777 -84.4417L5.94129 103.753ZM-40.9616 -61.1189L-46.1092 -56.6561L77.634 86.0741L82.7816 81.6113L-40.9616 -61.1189ZM-76.2592 35.9951L-74.7244 42.6304L109.319 0.0580626L107.784 -6.57715L-76.2592 35.9951ZM66.0845 -59.5314L60.2522 -63.0498L-37.3225 98.7015L-31.4901 102.22L66.0845 -59.5314ZM-37.3225 -63.0498L-43.1549 -59.5314L54.4198 102.22L60.2522 98.7015L-37.3225 -63.0498Z" fill="#FFCD00" mask="url(#path-2-inside-1_1_499)"/>
</g>
</g>
</g>
<g id="star_3">
<mask id="mask1_1_499" style="mask-type:alpha" maskUnits="userSpaceOnUse" x="28" y="0" width="24" height="24">
<rect id="Bounding box_2" x="28.4661" y="0.56543" width="22.6683" height="22.6683" fill="#D9D9D9"/>
</mask>
<g mask="url(#mask1_1_499)">
<path id="star_4" d="M33.9679 21.3442L35.5027 14.709L30.3551 10.2462L37.1556 9.65584L39.8003 3.39844L42.4449 9.65584L49.2454 10.2462L44.0978 14.709L45.6326 21.3442L39.8003 17.8259L33.9679 21.3442Z" fill="#FFCD00"/>
</g>
</g>
<g id="star_5">
<mask id="mask2_1_499" style="mask-type:alpha" maskUnits="userSpaceOnUse" x="56" y="0" width="24" height="24">
<rect id="Bounding box_3" x="56.8015" y="0.56543" width="22.6683" height="22.6683" fill="#D9D9D9"/>
</mask>
<g mask="url(#mask2_1_499)">
<path id="star_6" d="M62.3033 21.3442L63.8381 14.709L58.6905 10.2462L65.491 9.65584L68.1357 3.39844L70.7803 9.65584L77.5808 10.2462L72.4332 14.709L73.968 21.3442L68.1357 17.8259L62.3033 21.3442Z" fill="#FFCD00"/>
</g>
</g>
<g id="star_7">
<mask id="mask3_1_499" style="mask-type:alpha" maskUnits="userSpaceOnUse" x="85" y="0" width="23" height="24">
<rect id="Bounding box_4" x="85.1369" y="0.56543" width="22.6683" height="22.6683" fill="#D9D9D9"/>
</mask>
<g mask="url(#mask3_1_499)">
<path id="star_8" d="M90.6388 21.3442L92.1736 14.709L87.026 10.2462L93.8265 9.65584L96.4711 3.39844L99.1158 9.65584L105.916 10.2462L100.769 14.709L102.304 21.3442L96.4711 17.8259L90.6388 21.3442Z" fill="#FFCD00"/>
</g>
</g>
<g id="star_9">
<mask id="mask4_1_499" style="mask-type:alpha" maskUnits="userSpaceOnUse" x="113" y="0" width="24" height="24">
<rect id="Bounding box_5" x="113.472" y="0.56543" width="22.6683" height="22.6683" fill="#D9D9D9"/>
</mask>
<g mask="url(#mask4_1_499)">
<path id="star_10" d="M118.974 21.3442L120.509 14.709L115.361 10.2462L122.162 9.65584L124.807 3.39844L127.451 9.65584L134.252 10.2462L129.104 14.709L130.639 21.3442L124.807 17.8259L118.974 21.3442Z" fill="#FFCD00"/>
</g>
</g>
</g>
</svg>
