<svg width="19" height="22" viewBox="0 0 19 22" fill="none" xmlns="http://www.w3.org/2000/svg">
<path d="M5.85714 4.33929C6.36012 4.33929 6.76786 3.93155 6.76786 3.42857C6.76786 2.9256 6.36012 2.51786 5.85714 2.51786V4.33929ZM13.1429 2.51786C12.6399 2.51786 12.2321 2.9256 12.2321 3.42857C12.2321 3.93155 12.6399 4.33929 13.1429 4.33929V2.51786ZM5.85714 2.51786C5.35417 2.51786 4.94643 2.9256 4.94643 3.42857C4.94643 3.93155 5.35417 4.33929 5.85714 4.33929V2.51786ZM13.1429 4.33929C13.6458 4.33929 14.0536 3.93155 14.0536 3.42857C14.0536 2.9256 13.6458 2.51786 13.1429 2.51786V4.33929ZM6.76786 3.42857C6.76786 2.9256 6.36012 2.51786 5.85714 2.51786C5.35417 2.51786 4.94643 2.9256 4.94643 3.42857H6.76786ZM4.94643 4.64286C4.94643 5.14583 5.35417 5.55357 5.85714 5.55357C6.36012 5.55357 6.76786 5.14583 6.76786 4.64286H4.94643ZM4.94643 3.42857C4.94643 3.93155 5.35417 4.33929 5.85714 4.33929C6.36012 4.33929 6.76786 3.93155 6.76786 3.42857H4.94643ZM6.76786 1C6.76786 0.497026 6.36012 0.0892857 5.85714 0.0892857C5.35417 0.0892857 4.94643 0.497026 4.94643 1L6.76786 1ZM14.0536 3.42857C14.0536 2.9256 13.6458 2.51786 13.1429 2.51786C12.6399 2.51786 12.2321 2.9256 12.2321 3.42857H14.0536ZM12.2321 4.64286C12.2321 5.14583 12.6399 5.55357 13.1429 5.55357C13.6458 5.55357 14.0536 5.14583 14.0536 4.64286H12.2321ZM12.2321 3.42857C12.2321 3.93155 12.6399 4.33929 13.1429 4.33929C13.6458 4.33929 14.0536 3.93155 14.0536 3.42857H12.2321ZM14.0536 1C14.0536 0.497026 13.6458 0.0892857 13.1429 0.0892857C12.6399 0.0892857 12.2321 0.497026 12.2321 1L14.0536 1ZM5.85714 2.51786C2.67164 2.51786 0.0892849 5.10021 0.0892849 8.28571H1.91071C1.91071 6.10616 3.67759 4.33929 5.85714 4.33929V2.51786ZM0.0892849 8.28571V15.5714H1.91071V8.28571H0.0892849ZM0.0892849 15.5714C0.0892849 18.7569 2.67164 21.3393 5.85714 21.3393V19.5179C3.67759 19.5179 1.91071 17.751 1.91071 15.5714H0.0892849ZM5.85714 21.3393H13.1429V19.5179H5.85714V21.3393ZM13.1429 21.3393C16.3284 21.3393 18.9107 18.7569 18.9107 15.5714H17.0893C17.0893 17.751 15.3224 19.5179 13.1429 19.5179V21.3393ZM18.9107 15.5714V8.28571H17.0893V15.5714H18.9107ZM18.9107 8.28571C18.9107 5.10021 16.3284 2.51786 13.1429 2.51786V4.33929C15.3224 4.33929 17.0893 6.10616 17.0893 8.28571H18.9107ZM5.85714 4.33929L13.1429 4.33929V2.51786L5.85714 2.51786V4.33929ZM4.94643 3.42857V4.64286H6.76786V3.42857H4.94643ZM6.76786 3.42857V1L4.94643 1V3.42857H6.76786ZM12.2321 3.42857V4.64286H14.0536V3.42857H12.2321ZM14.0536 3.42857V1L12.2321 1V3.42857H14.0536Z" fill="#008DD4"/>
<path d="M4.64258 11.9286L7.07115 15.5714L14.3569 9.5" stroke="#008DD4" stroke-width="1.82143" stroke-linecap="round" stroke-linejoin="round"/>
</svg>
