<svg width="24" height="19" viewBox="0 0 24 19" fill="none" xmlns="http://www.w3.org/2000/svg">
<path fill-rule="evenodd" clip-rule="evenodd" d="M3.94078 4.92816C4.88066 2.60353 6.0112 1 8.57049 1H15.4307C17.9876 1 19.1193 2.60353 20.0604 4.92816L21.0003 7.41535C21.7006 7.42378 22.344 7.80289 22.6906 8.41145C22.8946 8.75808 23.0014 9.15325 22.9998 9.55543V12.7625C23.0089 13.5113 22.631 14.2118 22.0001 14.6154C21.7001 14.8022 21.3537 14.9013 21.0003 14.9014H2.99969C2.64626 14.9013 2.29992 14.8022 1.99992 14.6154C1.36905 14.2118 0.991065 13.5113 1.00016 12.7625V9.55543C0.998842 9.15367 1.10565 8.75895 1.30938 8.41267C1.65604 7.80412 2.29937 7.425 2.99969 7.41657L3.94078 4.92816Z" stroke="#008DD4" stroke-width="1.46665" stroke-linecap="round" stroke-linejoin="round"/>
<path d="M5.73371 14.9026C5.73371 14.4976 5.40539 14.1693 5.00039 14.1693C4.59539 14.1693 4.26707 14.4976 4.26707 14.9026H5.73371ZM5.00039 16.5074H4.26707C4.26707 16.5152 4.26719 16.523 4.26744 16.5309L5.00039 16.5074ZM3.49952 18.1109L3.47398 18.8438C3.49082 18.8444 3.50767 18.8444 3.52451 18.8438L3.49952 18.1109ZM1.99988 16.5062L2.73281 16.5302C2.73307 16.5222 2.7332 16.5142 2.7332 16.5062H1.99988ZM2.7332 14.6154C2.7332 14.2104 2.40488 13.8821 1.99988 13.8821C1.59488 13.8821 1.26656 14.2104 1.26656 14.6154H2.7332ZM2.99964 6.68208C2.59463 6.68208 2.26631 7.0104 2.26631 7.41541C2.26631 7.82041 2.59463 8.14873 2.99964 8.14873V6.68208ZM21.0003 8.14873C21.4053 8.14873 21.7336 7.82041 21.7336 7.41541C21.7336 7.0104 21.4053 6.68208 21.0003 6.68208V8.14873ZM19.7341 14.9014C19.7341 14.4964 19.4058 14.1681 19.0008 14.1681C18.5958 14.1681 18.2674 14.4964 18.2674 14.9014H19.7341ZM19.0008 16.5062L19.7326 16.5529C19.7336 16.5373 19.7341 16.5217 19.7341 16.5062H19.0008ZM19.7219 17.8876L20.1019 17.2604L19.7219 17.8876ZM21.2802 17.8876L20.9001 17.2604L21.2802 17.8876ZM22.0013 16.5062H21.2679C21.2679 16.5217 21.2684 16.5373 21.2694 16.5529L22.0013 16.5062ZM22.7346 14.6154C22.7346 14.2104 22.4063 13.8821 22.0013 13.8821C21.5963 13.8821 21.2679 14.2104 21.2679 14.6154H22.7346ZM4.66674 10.6554C4.26174 10.6554 3.93342 10.9838 3.93342 11.3888C3.93342 11.7938 4.26174 12.1221 4.66674 12.1221V10.6554ZM5.88894 12.1221C6.29395 12.1221 6.62227 11.7938 6.62227 11.3888C6.62227 10.9838 6.29395 10.6554 5.88894 10.6554V12.1221ZM18.111 10.6554C17.706 10.6554 17.3777 10.9838 17.3777 11.3888C17.3777 11.7938 17.706 12.1221 18.111 12.1221V10.6554ZM19.3332 12.1221C19.7382 12.1221 20.0665 11.7938 20.0665 11.3888C20.0665 10.9838 19.7382 10.6554 19.3332 10.6554V12.1221ZM4.26707 14.9026V16.5074H5.73371V14.9026H4.26707ZM4.26744 16.5309C4.28195 16.9836 3.92721 17.3626 3.47453 17.378L3.52451 18.8438C4.78556 18.8008 5.77375 17.745 5.73334 16.4839L4.26744 16.5309ZM3.52507 17.378C3.07238 17.3622 2.71793 16.983 2.73281 16.5302L1.26695 16.4821C1.22551 17.7432 2.21292 18.7998 3.47398 18.8438L3.52507 17.378ZM2.7332 16.5062V14.6154H1.26656V16.5062H2.7332ZM2.99964 8.14873H21.0003V6.68208H2.99964V8.14873ZM18.2674 14.9014V16.5062H19.7341V14.9014H18.2674ZM18.2689 16.4594C18.2158 17.2909 18.6293 18.0829 19.3418 18.5147L20.1019 17.2604C19.8566 17.1118 19.7143 16.8391 19.7326 16.5529L18.2689 16.4594ZM19.3418 18.5147C20.0543 18.9465 20.9477 18.9465 21.6602 18.5147L20.9001 17.2604C20.6548 17.4091 20.3472 17.4091 20.1019 17.2604L19.3418 18.5147ZM21.6602 18.5147C22.3728 18.0829 22.7862 17.2909 22.7331 16.4594L21.2694 16.5529C21.2877 16.8391 21.1454 17.1118 20.9001 17.2604L21.6602 18.5147ZM22.7346 16.5062V14.6154H21.2679V16.5062H22.7346ZM4.66674 12.1221H5.88894V10.6554H4.66674V12.1221ZM18.111 12.1221H19.3332V10.6554H18.111V12.1221Z" fill="#008DD4"/>
</svg>
