<svg width="18" height="15" viewBox="0 0 18 15" fill="none" xmlns="http://www.w3.org/2000/svg">
<path fill-rule="evenodd" clip-rule="evenodd" d="M3.13875 4.1901C3.8223 2.49946 4.64451 1.33325 6.50581 1.33325H11.4951C13.3546 1.33325 14.1777 2.49946 14.8621 4.1901L15.5457 5.99896C16.055 6.00509 16.5229 6.28081 16.775 6.7234C16.9233 6.97549 17.001 7.26289 16.9999 7.55538V9.88779C17.0065 10.4324 16.7316 10.9419 16.2728 11.2353C16.0546 11.3712 15.8027 11.4433 15.5457 11.4433H2.45432C2.19728 11.4433 1.9454 11.3712 1.72722 11.2353C1.2684 10.9419 0.993502 10.4324 1.00012 9.88779V7.55538C0.999157 7.26319 1.07683 6.97612 1.225 6.72428C1.47712 6.2817 1.945 6.00598 2.45432 5.99985L3.13875 4.1901Z" stroke="#008DD4" stroke-linecap="round" stroke-linejoin="round"/>
<path d="M4.40937 11.4443C4.40937 11.1681 4.18552 10.9443 3.90937 10.9443C3.63323 10.9443 3.40937 11.1681 3.40937 11.4443H4.40937ZM3.90937 12.6114H3.40937C3.40937 12.6167 3.40946 12.622 3.40963 12.6274L3.90937 12.6114ZM2.81783 13.7776L2.80042 14.2773C2.8119 14.2777 2.82339 14.2777 2.83487 14.2773L2.81783 13.7776ZM1.72718 12.6105L2.22691 12.6269C2.22709 12.6214 2.22718 12.6159 2.22718 12.6105H1.72718ZM2.22718 11.2354C2.22718 10.9592 2.00333 10.7354 1.72718 10.7354C1.45104 10.7354 1.22718 10.9592 1.22718 11.2354H2.22718ZM2.45455 5.49902C2.1784 5.49902 1.95455 5.72288 1.95455 5.99902C1.95455 6.27517 2.1784 6.49902 2.45455 6.49902V5.49902ZM15.5459 6.49902C15.8221 6.49902 16.0459 6.27517 16.0459 5.99902C16.0459 5.72288 15.8221 5.49902 15.5459 5.49902V6.49902ZM14.5917 11.4434C14.5917 11.1672 14.3679 10.9434 14.0917 10.9434C13.8156 10.9434 13.5917 11.1672 13.5917 11.4434H14.5917ZM14.0917 12.6105L14.5907 12.6423C14.5914 12.6317 14.5917 12.6211 14.5917 12.6105H14.0917ZM14.6162 13.6152L14.8753 13.1876L14.6162 13.6152ZM15.7495 13.6152L15.4903 13.1876L15.7495 13.6152ZM16.2739 12.6105H15.7739C15.7739 12.6211 15.7742 12.6317 15.7749 12.6423L16.2739 12.6105ZM16.7739 11.2354C16.7739 10.9592 16.5501 10.7354 16.2739 10.7354C15.9978 10.7354 15.7739 10.9592 15.7739 11.2354H16.7739ZM3.6669 8.38874C3.39076 8.38874 3.1669 8.6126 3.1669 8.88874C3.1669 9.16488 3.39076 9.38874 3.6669 9.38874V8.38874ZM4.55578 9.38874C4.83192 9.38874 5.05578 9.16488 5.05578 8.88874C5.05578 8.6126 4.83192 8.38874 4.55578 8.38874V9.38874ZM13.4446 8.38874C13.1685 8.38874 12.9446 8.6126 12.9446 8.88874C12.9446 9.16488 13.1685 9.38874 13.4446 9.38874V8.38874ZM14.3335 9.38874C14.6096 9.38874 14.8335 9.16488 14.8335 8.88874C14.8335 8.6126 14.6096 8.38874 14.3335 8.38874V9.38874ZM3.40937 11.4443V12.6114H4.40937V11.4443H3.40937ZM3.40963 12.6274C3.42077 12.975 3.14839 13.266 2.8008 13.2779L2.83487 14.2773C3.73363 14.2466 4.43792 13.4942 4.40912 12.5954L3.40963 12.6274ZM2.83525 13.2779C2.48766 13.2658 2.21549 12.9745 2.22691 12.6269L1.22745 12.5941C1.19792 13.4929 1.90165 14.2459 2.80042 14.2773L2.83525 13.2779ZM2.22718 12.6105V11.2354H1.22718V12.6105H2.22718ZM2.45455 6.49902H15.5459V5.49902H2.45455V6.49902ZM13.5917 11.4434V12.6105H14.5917V11.4434H13.5917ZM13.5927 12.5786C13.5549 13.1709 13.8494 13.7351 14.357 14.0428L14.8753 13.1876C14.6863 13.073 14.5766 12.8629 14.5907 12.6423L13.5927 12.5786ZM14.357 14.0428C14.8646 14.3504 15.5011 14.3504 16.0086 14.0428L15.4903 13.1876C15.3013 13.3021 15.0643 13.3021 14.8753 13.1876L14.357 14.0428ZM16.0086 14.0428C16.5162 13.7351 16.8107 13.1709 16.7729 12.5786L15.7749 12.6423C15.789 12.8629 15.6793 13.073 15.4903 13.1876L16.0086 14.0428ZM16.7739 12.6105V11.2354H15.7739V12.6105H16.7739ZM3.6669 9.38874H4.55578V8.38874H3.6669V9.38874ZM13.4446 9.38874H14.3335V8.38874H13.4446V9.38874Z" fill="#008DD4"/>
</svg>
