<svg width="14" height="14" viewBox="0 0 14 14" fill="none" xmlns="http://www.w3.org/2000/svg">
<path d="M7.58366 6.41675H4.08366C3.92895 6.41675 3.78058 6.47821 3.67118 6.5876C3.56178 6.697 3.50033 6.84537 3.50033 7.00008C3.50033 7.15479 3.56178 7.30316 3.67118 7.41256C3.78058 7.52196 3.92895 7.58341 4.08366 7.58341H7.58366C7.73837 7.58341 7.88674 7.52196 7.99614 7.41256C8.10553 7.30316 8.16699 7.15479 8.16699 7.00008C8.16699 6.84537 8.10553 6.697 7.99614 6.5876C7.88674 6.47821 7.73837 6.41675 7.58366 6.41675ZM9.91699 4.08341H4.08366C3.92895 4.08341 3.78058 4.14487 3.67118 4.25427C3.56178 4.36367 3.50033 4.51204 3.50033 4.66675C3.50033 4.82146 3.56178 4.96983 3.67118 5.07923C3.78058 5.18862 3.92895 5.25008 4.08366 5.25008H9.91699C10.0717 5.25008 10.2201 5.18862 10.3295 5.07923C10.4389 4.96983 10.5003 4.82146 10.5003 4.66675C10.5003 4.51204 10.4389 4.36367 10.3295 4.25427C10.2201 4.14487 10.0717 4.08341 9.91699 4.08341ZM11.0837 1.16675H2.91699C2.45286 1.16675 2.00774 1.35112 1.67956 1.67931C1.35137 2.0075 1.16699 2.45262 1.16699 2.91675V8.75008C1.16699 9.21421 1.35137 9.65933 1.67956 9.98752C2.00774 10.3157 2.45286 10.5001 2.91699 10.5001H9.67783L11.8362 12.6642C11.8907 12.7183 11.9553 12.7611 12.0264 12.7901C12.0975 12.8191 12.1736 12.8339 12.2503 12.8334C12.3268 12.8354 12.4028 12.8194 12.472 12.7867C12.5785 12.743 12.6697 12.6687 12.7341 12.5732C12.7984 12.4777 12.8331 12.3652 12.8337 12.2501V2.91675C12.8337 2.45262 12.6493 2.0075 12.3211 1.67931C11.9929 1.35112 11.5478 1.16675 11.0837 1.16675ZM11.667 10.8442L10.3312 9.50258C10.2767 9.44852 10.212 9.40574 10.1409 9.37671C10.0699 9.34768 9.99376 9.33297 9.91699 9.33341H2.91699C2.76228 9.33341 2.61391 9.27196 2.50451 9.16256C2.39512 9.05316 2.33366 8.90479 2.33366 8.75008V2.91675C2.33366 2.76204 2.39512 2.61367 2.50451 2.50427C2.61391 2.39487 2.76228 2.33341 2.91699 2.33341H11.0837C11.2384 2.33341 11.3867 2.39487 11.4961 2.50427C11.6055 2.61367 11.667 2.76204 11.667 2.91675V10.8442Z" fill="#52D017"/>
</svg>
