<svg width="16" height="16" viewBox="0 0 16 16" fill="none" xmlns="http://www.w3.org/2000/svg">
<g clip-path="url(#clip0_635_3436)">
<path d="M6.00033 14.0001H12.0003C12.5537 14.0001 13.027 13.6667 13.227 13.1867L15.2403 8.48675C15.3003 8.33341 15.3337 8.17341 15.3337 8.00008V6.66675C15.3337 5.93341 14.7337 5.33341 14.0003 5.33341H9.79366L10.427 2.28675L10.447 2.07341C10.447 1.80008 10.3337 1.54675 10.1537 1.36675L9.44699 0.666748L5.05366 5.06008C4.81366 5.30008 4.66699 5.63341 4.66699 6.00008V12.6667C4.66699 13.4001 5.26699 14.0001 6.00033 14.0001ZM6.00033 6.00008L8.89366 3.10675L8.00033 6.66675H14.0003V8.00008L12.0003 12.6667H6.00033V6.00008ZM0.666992 6.00008H3.33366V14.0001H0.666992V6.00008Z" fill="#FFA800"/>
</g>
<defs>
<clipPath id="clip0_635_3436">
<rect width="16" height="16" fill="white"/>
</clipPath>
</defs>
</svg>
